{"title":"The Thing 2011 720p BluRay x264 English Hindi ESub [MW]","magnet":"magnet:?xt=urn:btih:60978774573fbf8cb5ea300827ed5b710bfb6462&dn=The+Thing+2011+720p+BluRay+x264+English+Hindi+ESub+%5BMW%5D&tr=udp%3A%2F%2Ftracker.leechers-paradise.org%3A6969&tr=udp%3A%2F%2Fzer0day.ch%3A1337&tr=udp%3A%2F%2Fopen.demonii.com%3A1337&tr=udp%3A%2F%2Ftracker.coppersurfer.tk%3A6969&tr=udp%3A%2F%2Fexodus.desync.com%3A6969","uploader":"MFreaky","categoryP":"video","categoryS":"hd___movies","size":"908361784","seeders":"27","leechers":"59","description":" <a href=\"https://pichub.site/image/IRHBk\" rel=\"nofollow\" target=\"_NEW\">https://pichub.site/image/IRHBk</a> <a href=\"\nhttps://pichub.site/image/IRT6Q\" rel=\"nofollow\" target=\"_NEW\">\nhttps://pichub.site/image/IRT6Q</a> <a href=\"\nhttps://pichub.site/image/IRQfv\" rel=\"nofollow\" target=\"_NEW\">\nhttps://pichub.site/image/IRQfv</a> <a href=\"\nhttps://pichub.site/image/IRbr9\" rel=\"nofollow\" target=\"_NEW\">\nhttps://pichub.site/image/IRbr9</a> <a href=\"\nhttps://pichub.site/image/IRWhd\" rel=\"nofollow\" target=\"_NEW\">\nhttps://pichub.site/image/IRWhd</a>\r\n\r\nGeneral\r\nFormat : Matroska\r\nFormat version : Version 4 / Version 2\r\nFile size : 866 MiB\r\nDuration : 1 h 43 min\r\nOverall bit rate : 1 175 kb/s\r\n\r\nVideo\r\nID : 1\r\nFormat : AVC\r\nFormat/Info : Advanced Video Codec\r\nFormat profile : High@L3.1\r\nFormat settings : CABAC / 5 Ref Frames\r\nFormat settings, CABAC : Yes\r\nFormat settings, RefFrames : 5 frames\r\nCodec ID : V_MPEG4/ISO/AVC\r\nDuration : 1 h 43 min\r\nBit rate : 916 kb/s\r\nWidth : 1 280 pixels\r\nHeight : 536 pixels\r\nDisplay aspect ratio : 2.40:1\r\nFrame rate mode : Constant\r\nFrame rate : 23.976 (24000/1001) FPS\r\nColor space : YUV\r\nChroma subsampling : 4:2:0\r\nBit depth : 8 bits\r\nScan type : Progressive\r\nBits/(Pixel*Frame) : 0.056\r\nStream size : 675 MiB (78%)\r\nWriting library : x264 core 116 r2074 2641b9e\r\nDefault : Yes\r\nForced : No\r\n\r\nAudio #1\r\nID : 2\r\nFormat : AAC\r\nFormat/Info : Advanced Audio Codec\r\nFormat profile : LC\r\nCodec ID : A_AAC-2\r\nDuration : 1 h 43 min\r\nBit rate : 224 kb/s\r\nChannel(s) : 2 channels\r\nChannel positions : Front: L R\r\nSampling rate : 48.0 kHz\r\nFrame rate : 46.875 FPS (1024 SPF)\r\nCompression mode : Lossy\r\nStream size : 165 MiB (19%)\r\nLanguage : Hindi\r\nDefault : Yes\r\nForced : No\r\n\r\nAudio #2\r\nID : 3\r\nFormat : AAC\r\nFormat/Info : Advanced Audio Codec\r\nFormat profile : HE-AAC / LC\r\nFormat settings : Explicit\r\nCodec ID : A_AAC-2\r\nDuration : 1 h 43 min\r\nBit rate : 33.0 kb/s\r\nChannel(s) : 2 channels\r\nChannel positions : Front: L R\r\nSampling rate : 48.0 kHz / 24.0 kHz\r\nFrame rate : 23.438 FPS (1024 SPF)\r\nCompression mode : Lossy\r\nStream size : 24.3 MiB (3%)\r\nLanguage : English\r\nDefault : No\r\nForced : No\r\n\r\nText\r\nID : 4\r\nFormat : UTF-8\r\nCodec ID : S_TEXT/UTF8\r\nCodec ID/Info : UTF-8 Plain Text\r\nDuration : 1 h 35 min\r\nBit rate : 27 b/s\r\nCount of elements : 698\r\nStream size : 19.0 KiB (0%)\r\nDefault : Yes\r\nForced : No","last_updated":"2018-07-19T12:04:47.493Z","parsed":{"xt":"urn:btih:60978774573fbf8cb5ea300827ed5b710bfb6462","dn":"The Thing 2011 720p BluRay x264 English Hindi ESub [MW]","tr":["udp://exodus.desync.com:6969","udp://open.demonii.com:1337","udp://tracker.coppersurfer.tk:6969","udp://tracker.leechers-paradise.org:6969","udp://zer0day.ch:1337"],"infoHash":"60978774573fbf8cb5ea300827ed5b710bfb6462","infoHashBuffer":{"type":"Buffer","data":[96,151,135,116,87,63,191,140,181,234,48,8,39,237,91,113,11,251,100,98]},"name":"The Thing 2011 720p BluRay x264 English Hindi ESub [MW]","announce":["udp://exodus.desync.com:6969","udp://open.demonii.com:1337","udp://tracker.coppersurfer.tk:6969","udp://tracker.leechers-paradise.org:6969","udp://zer0day.ch:1337"],"urlList":[]}}